<?xml version="1.0" encoding="utf-8"?>
<!-- Generator: Adobe Illustrator 19.2.1, SVG Export Plug-In . SVG Version: 6.00 Build 0)  -->
<svg version="1.1" id="Calque_1" xmlns="http://www.w3.org/2000/svg" xmlns:xlink="http://www.w3.org/1999/xlink" x="0px" y="0px"
	 viewBox="0 0 1920 1080" style="enable-background:new 0 0 1920 1080;" xml:space="preserve">
<style type="text/css">
	.st0{fill:none;stroke:#322168;stroke-width:3;stroke-linecap:round;stroke-miterlimit:10;}
</style>
<title>green-space</title>
<g id="cities">
	<line class="st0" x1="1421.6" y1="122.7" x2="1437.8" y2="122.7"/>
	<line class="st0" x1="1550.3" y1="122.7" x2="1566.5" y2="122.7"/>
	<path class="st0" d="M1437.9,122.7c1.1-16.4,15.3-28.8,31.7-27.7c2.2,0.2,4.5,0.6,6.6,1.2"/>
	<path class="st0" d="M1549.6,122.7h0.7c-1.5-23.7-22-41.7-45.7-40.1c-10.4,0.7-20.2,5.1-27.6,12.5"/>
	<path class="st0" d="M1735.5,327.4c-13.1-1.8-25.1,7.4-26.9,20.4c-0.1,1.1-0.2,2.1-0.2,3.2c0,0.5,0,1,0,1.5"/>
	<path class="st0" d="M1780,330.7c-11.2-13.2-31-14.9-44.2-3.7c-0.1,0.1-0.2,0.2-0.3,0.3"/>
	<path class="st0" d="M1809,351c0-11.9-9.7-21.6-21.6-21.6c-2.5,0-5,0.4-7.4,1.3"/>
	<line class="st0" x1="1809" y1="351" x2="1827.3" y2="351"/>
	<line class="st0" x1="1708.3" y1="352.5" x2="1692.7" y2="352.5"/>
	<line class="st0" x1="73.1" y1="266.6" x2="89.3" y2="266.6"/>
	<line class="st0" x1="201.8" y1="266.6" x2="218.1" y2="266.6"/>
	<path class="st0" d="M89.4,266.6c1.1-16.4,15.3-28.8,31.7-27.7c2.2,0.2,4.5,0.6,6.6,1.2"/>
	<path class="st0" d="M201.1,266.6h0.7c-1.5-23.7-22-41.7-45.7-40.1c-10.4,0.7-20.2,5.1-27.6,12.5"/>
	<path class="st0" d="M437.5,93.7c-13.1-1.8-25.1,7.4-26.9,20.4c-0.1,1.1-0.2,2.1-0.2,3.2c0,0.5,0,1,0,1.6"/>
	<path class="st0" d="M482.1,97.1c-11.2-13.2-31-14.9-44.2-3.7c-0.1,0.1-0.2,0.2-0.3,0.3"/>
	<path class="st0" d="M511.1,117.3c0-11.9-9.7-21.6-21.6-21.6c-2.5,0-5,0.4-7.4,1.3"/>
	<line class="st0" x1="511.1" y1="117.3" x2="529.4" y2="117.3"/>
	<line class="st0" x1="410.4" y1="118.9" x2="394.8" y2="118.9"/>
</g>
</svg>
