<?xml version="1.0" encoding="utf-8"?>
<!-- Generator: Adobe Illustrator 19.2.1, SVG Export Plug-In . SVG Version: 6.00 Build 0)  -->
<svg version="1.1" id="Calque_1" xmlns="http://www.w3.org/2000/svg" xmlns:xlink="http://www.w3.org/1999/xlink" x="0px" y="0px"
	 viewBox="0 0 1920 1080" style="enable-background:new 0 0 1920 1080;" xml:space="preserve">
<style type="text/css">
	.st0{fill:none;stroke:#322168;stroke-width:3;stroke-linecap:round;stroke-miterlimit:10;}
	.st1{fill:#92E0B3;}
	.st2{fill:#7FD6A6;}
	.st3{fill:#6BC797;}
	.st4{fill:#78C498;}
	.st5{fill:#67B78B;}
</style>
<title>green-space</title>
<g id="cities">
	<line class="st0" x1="1421.6" y1="122.7" x2="1437.8" y2="122.7"/>
	<line class="st0" x1="1550.3" y1="122.7" x2="1566.5" y2="122.7"/>
	<path class="st0" d="M1437.9,122.7c1.1-16.4,15.3-28.8,31.7-27.7c2.2,0.2,4.5,0.6,6.6,1.2"/>
	<path class="st0" d="M1549.6,122.7h0.7c-1.5-23.7-22-41.7-45.7-40.1c-10.4,0.7-20.2,5.1-27.6,12.5"/>
	<path class="st0" d="M1735.5,327.4c-13.1-1.8-25.1,7.4-26.9,20.4c-0.1,1.1-0.2,2.1-0.2,3.2c0,0.5,0,1,0,1.5"/>
	<path class="st0" d="M1780,330.7c-11.2-13.2-31-14.9-44.2-3.7c-0.1,0.1-0.2,0.2-0.3,0.3"/>
	<path class="st0" d="M1809,351c0-11.9-9.7-21.6-21.6-21.6c-2.5,0-5,0.4-7.4,1.3"/>
	<line class="st0" x1="1809" y1="351" x2="1827.3" y2="351"/>
	<line class="st0" x1="1708.3" y1="352.5" x2="1692.7" y2="352.5"/>
	<line class="st0" x1="73.1" y1="266.6" x2="89.3" y2="266.6"/>
	<line class="st0" x1="201.8" y1="266.6" x2="218.1" y2="266.6"/>
	<path class="st0" d="M89.4,266.6c1.1-16.4,15.3-28.8,31.7-27.7c2.2,0.2,4.5,0.6,6.6,1.2"/>
	<path class="st0" d="M201.1,266.6h0.7c-1.5-23.7-22-41.7-45.7-40.1c-10.4,0.7-20.2,5.1-27.6,12.5"/>
	<path class="st0" d="M437.5,93.7c-13.1-1.8-25.1,7.4-26.9,20.4c-0.1,1.1-0.2,2.1-0.2,3.2c0,0.5,0,1,0,1.6"/>
	<path class="st0" d="M482.1,97.1c-11.2-13.2-31-14.9-44.2-3.7c-0.1,0.1-0.2,0.2-0.3,0.3"/>
	<path class="st0" d="M511.1,117.3c0-11.9-9.7-21.6-21.6-21.6c-2.5,0-5,0.4-7.4,1.3"/>
	<line class="st0" x1="511.1" y1="117.3" x2="529.4" y2="117.3"/>
	<line class="st0" x1="410.4" y1="118.9" x2="394.8" y2="118.9"/>
	<path class="st1" d="M1920,897.7c-29.2-0.9-57.3-0.2-85.6,1.2c-108.5,5.6-216.5,18.5-324.9,26c-74.5,5.2-135.7,27.9-210.4,28.7
		c-6.1,0.1-12.1,0.2-18.2,0.3l4.5,126.1H1920V897.7z"/>
	<path class="st2" d="M1281.1,953.9c-124.7,2.5-251.4,15.2-378.3-10c-133.1-26.5-141.1-21-207.4-22.4c-17.9-0.4-36.1-0.2-54.3,0
		l4.5,158.5h640L1281.1,953.9z"/>
	<path class="st2" d="M1920,953.7c-2.5,0-4.1,0.4-6.7,0.5c-69.6,1.5-138.5,10.5-207.3,19.7c-48.1,6.5-96.8,8-145.3,7.4
		c-51-0.6-102-2.7-153-5.4c-42.3-2.2-84.6-4.3-126.8-6.1l4.5,110.2H1920V953.7z"/>
	<path class="st3" d="M1281.1,969.8c-131.4-5.8-262.7-10.1-394.4-14.5c-82.7-2.8-164.6,6.6-245.7,20.8l4.5,103.9h640L1281.1,969.8z"
		/>
	<path class="st4" d="M515.4,916.9c-34.9-4.8-69.1-11.2-104.5-12.6C310.8,900.6,213.8,922,121.2,954c-38.5,13.3-61.2,4.3-102,8.5
		c-6.7,0.7-13.7,1.2-19.2,1.7l1,46.6l0,0l4.5,66.1c1.5,1,3.1,2,4.6,3h635.4L641,921.5C598.9,921.9,556.3,922.5,515.4,916.9z"/>
	<path class="st5" d="M642.3,976.2c-35.6,6.3-71.5-0.7-106.8,6.8c-153.1,32.7-241.5,44.5-412.5,19.5C37.2,990,22.3,984.2,0,990.7
		v89.3c1.5,1,645.5,0,645.5,0L642.3,976.2z"/>
</g>
</svg>
