<svg xmlns="http://www.w3.org/2000/svg" viewBox="0 0 57.5 101.52"><defs><style>.cls-1{fill:#6bc797;}</style></defs><title>green-space</title><g id="cities"><path class="cls-1" d="M30.68,0a45.59,45.59,0,0,1,5.48,1.16c10.08,3.42,16.19,10.4,17.67,20.95a25.1,25.1,0,0,1-15.89,27A25.44,25.44,0,1,1,24.18.38C25,.23,25.87.13,26.71,0Zm3.65,25.43a5.62,5.62,0,0,0-11.24,0,5.62,5.62,0,1,0,11.24,0Z"/><path class="cls-1" d="M57.5,86.92c-.21,1.16-.34,2.34-.64,3.47a16.55,16.55,0,0,1-9.33,11.06.81.81,0,0,1-.75-.06c1-.6,2-1.14,2.92-1.83a11.54,11.54,0,0,0,2.2-2.1,3.72,3.72,0,0,0-.56-5.57,9.23,9.23,0,0,0-3.06-1.72c-9.56-3-19.16-5.89-28.73-8.9A77.46,77.46,0,0,1,10,77.8C5.18,75.54,1.7,71.88.49,66.52c-1.62-7.21.77-14,7.2-18.09.48-.31,1-.55,1.51-.82l.18.3c-.22.16-.44.3-.64.47A25.76,25.76,0,0,0,5.57,51.1a3.16,3.16,0,0,0,.24,4.55,8.54,8.54,0,0,0,3.12,1.91c11.21,3.54,22.46,7,33.69,10.46a24.31,24.31,0,0,1,9.53,5.13,15.61,15.61,0,0,1,5.21,10.48,4.64,4.64,0,0,0,.14.64Z"/></g></svg>